<svg version="1.1" id="Layer_1" xmlns="http://www.w3.org/2000/svg" xmlns:xlink="http://www.w3.org/1999/xlink" x="0px" y="0px"
	 width="100%" viewBox="0 0 2000 2000" enable-background="new 0 0 2000 2000" xml:space="preserve">
<path fill="#000000" opacity="1.000000" stroke="none" 
	d="
M881.000000,2001.000000 
	C587.333313,2001.000000 294.166656,2001.000000 1.000000,2001.000000 
	C1.000000,1334.333374 1.000000,667.666687 1.000000,1.000000 
	C667.666687,1.000000 1334.333374,1.000000 2001.000000,1.000000 
	C2001.000000,667.666687 2001.000000,1334.333374 2001.000000,2001.000000 
	C1627.833374,2001.000000 1254.666626,2001.000000 881.000000,2001.000000 
M962.501099,1117.105225 
	C983.795288,1117.105225 1005.089417,1117.105225 1026.538452,1117.105225 
	C1054.305298,986.267639 1081.984009,855.845093 1109.700073,725.246704 
	C1082.050903,725.246704 1055.102905,725.246704 1028.040283,725.246704 
	C1027.686646,726.500854 1027.308716,727.597778 1027.069458,728.724182 
	C1017.123108,775.554382 1007.114685,822.371765 997.387878,869.247559 
	C996.565125,873.212524 995.019348,873.825684 991.513916,873.818604 
	C943.855530,873.722229 896.196838,873.756897 848.538269,873.743835 
	C846.965332,873.743408 845.392395,873.580811 843.356506,873.468262 
	C853.874207,823.764526 864.278625,774.596436 874.732117,725.196045 
	C847.223389,725.196045 820.250549,725.196045 792.868286,725.196045 
	C765.171692,855.688660 737.477600,986.169373 709.743225,1116.839844 
	C737.365845,1116.839844 764.458740,1116.839844 791.610657,1116.839844 
	C803.763123,1059.698242 815.912170,1002.815857 827.852478,945.889709 
	C828.661438,942.033081 830.199036,941.284302 833.774780,941.292664 
	C881.433105,941.403992 929.091797,941.366150 976.750366,941.365479 
	C978.362061,941.365417 979.973755,941.365479 981.981262,941.365479 
	C969.477661,1000.245117 957.122742,1058.424927 944.661377,1117.105713 
	C950.563354,1117.105713 956.032471,1117.105713 962.501099,1117.105225 
M394.374298,1085.118896 
	C410.553223,1102.225586 430.238983,1113.491211 452.723969,1120.045776 
	C481.507202,1128.436157 510.865784,1129.114014 540.370789,1125.806152 
	C572.098633,1122.249146 601.626770,1112.298828 627.821289,1093.565308 
	C658.521851,1071.609131 679.216797,1041.893066 694.015137,1007.689026 
	C697.465088,999.714905 700.422119,991.527466 703.842957,982.835815 
	C701.109131,982.835815 699.455872,982.835815 697.802673,982.835754 
	C674.305603,982.835327 650.807068,982.971375 627.312866,982.713623 
	C622.870300,982.664917 621.177368,984.065369 619.647888,988.173340 
	C611.946228,1008.858765 600.444214,1027.009399 581.660400,1039.412720 
	C556.281006,1056.171143 528.199463,1059.804810 498.868835,1054.283203 
	C477.479736,1050.256470 462.152435,1037.747681 453.391083,1017.712097 
	C448.403778,1006.307007 446.359619,994.172119 445.834717,981.780273 
	C443.636627,929.887756 457.450134,882.390625 485.780975,839.125549 
	C511.590118,799.711487 547.330688,780.336548 595.196594,786.990051 
	C620.765320,790.544189 639.404419,803.041016 646.473022,829.042542 
	C648.590393,836.831177 649.199341,845.029907 650.499268,853.040039 
	C677.404724,853.040039 704.494568,853.040039 731.666687,853.040039 
	C733.134583,835.753296 733.783691,818.782776 729.562683,802.078003 
	C722.095398,772.526123 703.866943,751.000977 678.350342,735.385254 
	C657.773132,722.792419 634.873535,717.374939 611.043274,715.568787 
	C574.992554,712.836304 539.938965,717.001160 506.472015,731.361877 
	C469.165375,747.370300 440.015350,773.388123 416.400024,805.875427 
	C372.403046,866.401550 356.096466,934.718933 361.330688,1008.519714 
	C363.369293,1037.263550 373.878876,1063.159058 394.374298,1085.118896 
M1282.474365,798.865356 
	C1291.207764,803.248047 1297.585693,810.095093 1300.770508,819.140808 
	C1308.706421,841.680847 1306.564453,863.079041 1291.385864,882.226562 
	C1281.832886,894.277466 1269.408447,903.049683 1256.271118,910.695679 
	C1227.832764,927.246948 1199.240479,943.534119 1170.679077,959.873352 
	C1120.499146,988.580017 1085.203003,1029.563721 1067.642456,1085.058594 
	C1064.368774,1095.404053 1061.959106,1106.022827 1059.035278,1116.947021 
	C1147.964966,1116.947021 1235.735107,1116.947021 1323.826050,1116.947021 
	C1328.595825,1094.520874 1333.349731,1072.168945 1338.207886,1049.327637 
	C1282.231445,1049.327637 1226.821045,1049.327637 1169.967896,1049.327637 
	C1174.008545,1044.530640 1177.021729,1040.417725 1180.568970,1036.833374 
	C1197.249756,1019.977478 1217.439087,1007.971619 1237.633301,995.995911 
	C1263.506836,980.652100 1289.699097,965.816162 1315.160034,949.815979 
	C1334.751221,937.504395 1351.798096,922.040771 1363.954834,901.944519 
	C1377.437134,879.657288 1382.361450,855.104370 1382.378662,829.384216 
	C1382.405640,789.082520 1363.688965,760.332581 1328.053589,742.315613 
	C1309.720947,733.046753 1289.935913,729.766418 1269.604736,729.475159 
	C1237.388550,729.013428 1207.188232,735.896118 1180.469238,754.811523 
	C1148.807251,777.226318 1130.584717,808.518250 1121.012085,845.424072 
	C1119.249268,852.220215 1117.986816,859.146179 1116.399658,866.443237 
	C1140.795044,866.443237 1164.111450,866.496948 1187.425415,866.289673 
	C1188.631348,866.278931 1190.560913,864.215454 1190.897339,862.807312 
	C1194.199219,848.993896 1198.634644,835.654541 1206.189819,823.513672 
	C1222.501953,797.301086 1254.601562,786.689758 1282.474365,798.865356 
M1642.124634,1008.729858 
	C1644.760498,996.597473 1647.396484,984.465088 1650.123657,971.912781 
	C1635.532349,971.912781 1621.413452,971.912781 1606.911987,971.912781 
	C1624.099487,890.937134 1641.201660,810.363708 1658.405151,729.312561 
	C1656.025024,729.312561 1654.375977,729.312439 1652.726929,729.312500 
	C1627.061035,729.313354 1601.394775,729.381592 1575.729736,729.233337 
	C1572.370239,729.213928 1570.335571,730.313965 1568.249390,732.871948 
	C1507.925537,806.835327 1447.582520,880.783203 1387.022949,954.553284 
	C1381.058594,961.818665 1377.032715,969.320496 1375.341553,978.666809 
	C1372.185425,996.107788 1368.075928,1013.376343 1364.232910,1031.325195 
	C1415.617432,1031.325195 1466.489136,1031.325195 1517.812988,1031.325195 
	C1511.736572,1060.159424 1505.785767,1088.397949 1499.776367,1116.914062 
	C1525.330078,1116.914062 1550.452271,1116.914062 1576.012085,1116.914062 
	C1582.050171,1088.420044 1588.096558,1059.887085 1594.224976,1030.967041 
	C1608.876099,1030.967041 1623.124756,1030.967041 1637.391479,1030.967041 
	C1638.997681,1023.522400 1640.503296,1016.543762 1642.124634,1008.729858 
M1448.967041,558.410278 
	C1446.903931,550.467041 1444.840820,542.523804 1442.868164,534.928894 
	C1437.917603,551.537659 1433.269775,568.340698 1427.895020,584.907898 
	C1416.959595,618.615173 1395.881348,643.230835 1362.070801,655.628052 
	C1349.459717,660.252136 1336.528809,664.022339 1323.674438,667.955566 
	C1317.195190,669.938171 1310.561279,671.415344 1303.166504,673.336975 
	C1313.996826,676.175293 1323.940674,678.292297 1333.555176,681.421448 
	C1346.320312,685.575928 1359.098755,689.898743 1371.392822,695.249084 
	C1400.869507,708.077026 1417.943970,731.985352 1427.805176,761.553284 
	C1433.357056,778.199890 1437.917480,795.177124 1442.790405,811.554749 
	C1445.753662,800.638184 1448.355591,788.938293 1452.149414,777.638611 
	C1456.417725,764.926147 1461.036011,752.230042 1466.783325,740.135742 
	C1479.765991,712.816101 1503.075073,697.459167 1530.774780,688.143311 
	C1547.314941,682.580627 1564.204834,678.057861 1580.914917,673.074341 
	C1579.704102,672.733459 1578.287598,672.346802 1576.878052,671.935913 
	C1560.940674,667.289551 1544.850464,663.104431 1529.099609,657.893433 
	C1496.290161,647.038757 1472.663330,626.005615 1460.443115,593.225830 
	C1456.271118,582.035095 1452.869873,570.557068 1448.967041,558.410278 
z"/>
<path fill="#FEFEFE" opacity="1.000000" stroke="none" 
	d="
M962.001343,1117.105469 
	C956.032471,1117.105713 950.563354,1117.105713 944.661377,1117.105713 
	C957.122742,1058.424927 969.477661,1000.245117 981.981262,941.365479 
	C979.973755,941.365479 978.362061,941.365417 976.750366,941.365479 
	C929.091797,941.366150 881.433105,941.403992 833.774780,941.292664 
	C830.199036,941.284302 828.661438,942.033081 827.852478,945.889709 
	C815.912170,1002.815857 803.763123,1059.698242 791.610657,1116.839844 
	C764.458740,1116.839844 737.365845,1116.839844 709.743225,1116.839844 
	C737.477600,986.169373 765.171692,855.688660 792.868286,725.196045 
	C820.250549,725.196045 847.223389,725.196045 874.732117,725.196045 
	C864.278625,774.596436 853.874207,823.764526 843.356506,873.468262 
	C845.392395,873.580811 846.965332,873.743408 848.538269,873.743835 
	C896.196838,873.756897 943.855530,873.722229 991.513916,873.818604 
	C995.019348,873.825684 996.565125,873.212524 997.387878,869.247559 
	C1007.114685,822.371765 1017.123108,775.554382 1027.069458,728.724182 
	C1027.308716,727.597778 1027.686646,726.500854 1028.040283,725.246704 
	C1055.102905,725.246704 1082.050903,725.246704 1109.700073,725.246704 
	C1081.984009,855.845093 1054.305298,986.267639 1026.538452,1117.105225 
	C1005.089417,1117.105225 983.795288,1117.105225 962.001343,1117.105469 
z"/>
<path fill="#FEFEFE" opacity="1.000000" stroke="none" 
	d="
M394.142120,1084.852051 
	C373.878876,1063.159058 363.369293,1037.263550 361.330688,1008.519714 
	C356.096466,934.718933 372.403046,866.401550 416.400024,805.875427 
	C440.015350,773.388123 469.165375,747.370300 506.472015,731.361877 
	C539.938965,717.001160 574.992554,712.836304 611.043274,715.568787 
	C634.873535,717.374939 657.773132,722.792419 678.350342,735.385254 
	C703.866943,751.000977 722.095398,772.526123 729.562683,802.078003 
	C733.783691,818.782776 733.134583,835.753296 731.666687,853.040039 
	C704.494568,853.040039 677.404724,853.040039 650.499268,853.040039 
	C649.199341,845.029907 648.590393,836.831177 646.473022,829.042542 
	C639.404419,803.041016 620.765320,790.544189 595.196594,786.990051 
	C547.330688,780.336548 511.590118,799.711487 485.780975,839.125549 
	C457.450134,882.390625 443.636627,929.887756 445.834717,981.780273 
	C446.359619,994.172119 448.403778,1006.307007 453.391083,1017.712097 
	C462.152435,1037.747681 477.479736,1050.256470 498.868835,1054.283203 
	C528.199463,1059.804810 556.281006,1056.171143 581.660400,1039.412720 
	C600.444214,1027.009399 611.946228,1008.858765 619.647888,988.173340 
	C621.177368,984.065369 622.870300,982.664917 627.312866,982.713623 
	C650.807068,982.971375 674.305603,982.835327 697.802673,982.835754 
	C699.455872,982.835815 701.109131,982.835815 703.842957,982.835815 
	C700.422119,991.527466 697.465088,999.714905 694.015137,1007.689026 
	C679.216797,1041.893066 658.521851,1071.609131 627.821289,1093.565308 
	C601.626770,1112.298828 572.098633,1122.249146 540.370789,1125.806152 
	C510.865784,1129.114014 481.507202,1128.436157 452.723969,1120.045776 
	C430.238983,1113.491211 410.553223,1102.225586 394.142120,1084.852051 
z"/>
<path fill="#FEFEFE" opacity="1.000000" stroke="none" 
	d="
M1282.140015,798.684509 
	C1254.601562,786.689758 1222.501953,797.301086 1206.189819,823.513672 
	C1198.634644,835.654541 1194.199219,848.993896 1190.897339,862.807312 
	C1190.560913,864.215454 1188.631348,866.278931 1187.425415,866.289673 
	C1164.111450,866.496948 1140.795044,866.443237 1116.399658,866.443237 
	C1117.986816,859.146179 1119.249268,852.220215 1121.012085,845.424072 
	C1130.584717,808.518250 1148.807251,777.226318 1180.469238,754.811523 
	C1207.188232,735.896118 1237.388550,729.013428 1269.604736,729.475159 
	C1289.935913,729.766418 1309.720947,733.046753 1328.053589,742.315613 
	C1363.688965,760.332581 1382.405640,789.082520 1382.378662,829.384216 
	C1382.361450,855.104370 1377.437134,879.657288 1363.954834,901.944519 
	C1351.798096,922.040771 1334.751221,937.504395 1315.160034,949.815979 
	C1289.699097,965.816162 1263.506836,980.652100 1237.633301,995.995911 
	C1217.439087,1007.971619 1197.249756,1019.977478 1180.568970,1036.833374 
	C1177.021729,1040.417725 1174.008545,1044.530640 1169.967896,1049.327637 
	C1226.821045,1049.327637 1282.231445,1049.327637 1338.207886,1049.327637 
	C1333.349731,1072.168945 1328.595825,1094.520874 1323.826050,1116.947021 
	C1235.735107,1116.947021 1147.964966,1116.947021 1059.035278,1116.947021 
	C1061.959106,1106.022827 1064.368774,1095.404053 1067.642456,1085.058594 
	C1085.203003,1029.563721 1120.499146,988.580017 1170.679077,959.873352 
	C1199.240479,943.534119 1227.832764,927.246948 1256.271118,910.695679 
	C1269.408447,903.049683 1281.832886,894.277466 1291.385864,882.226562 
	C1306.564453,863.079041 1308.706421,841.680847 1300.770508,819.140808 
	C1297.585693,810.095093 1291.207764,803.248047 1282.140015,798.684509 
z"/>
<path fill="#FEFEFE" opacity="1.000000" stroke="none" 
	d="
M1642.066895,1009.147461 
	C1640.503296,1016.543762 1638.997681,1023.522400 1637.391479,1030.967041 
	C1623.124756,1030.967041 1608.876099,1030.967041 1594.224976,1030.967041 
	C1588.096558,1059.887085 1582.050171,1088.420044 1576.012085,1116.914062 
	C1550.452271,1116.914062 1525.330078,1116.914062 1499.776367,1116.914062 
	C1505.785767,1088.397949 1511.736572,1060.159424 1517.812988,1031.325195 
	C1466.489136,1031.325195 1415.617432,1031.325195 1364.232910,1031.325195 
	C1368.075928,1013.376343 1372.185425,996.107788 1375.341553,978.666809 
	C1377.032715,969.320496 1381.058594,961.818665 1387.022949,954.553284 
	C1447.582520,880.783203 1507.925537,806.835327 1568.249390,732.871948 
	C1570.335571,730.313965 1572.370239,729.213928 1575.729736,729.233337 
	C1601.394775,729.381592 1627.061035,729.313354 1652.726929,729.312500 
	C1654.375977,729.312439 1656.025024,729.312561 1658.405151,729.312561 
	C1641.201660,810.363708 1624.099487,890.937134 1606.911987,971.912781 
	C1621.413452,971.912781 1635.532349,971.912781 1650.123657,971.912781 
	C1647.396484,984.465088 1644.760498,996.597473 1642.066895,1009.147461 
M1534.578735,954.105164 
	C1545.376587,905.135071 1556.174561,856.164978 1566.972412,807.194824 
	C1566.714355,807.059937 1566.456177,806.924988 1566.198120,806.790039 
	C1522.628296,861.578857 1479.058350,916.367615 1435.094482,971.651917 
	C1467.480225,971.651917 1499.031372,971.651917 1530.690308,971.651917 
	C1531.924316,965.927856 1533.112915,960.414612 1534.578735,954.105164 
z"/>
<path fill="#FDFDFD" opacity="1.000000" stroke="none" 
	d="
M1449.041748,558.810303 
	C1452.869873,570.557068 1456.271118,582.035095 1460.443115,593.225830 
	C1472.663330,626.005615 1496.290161,647.038757 1529.099609,657.893433 
	C1544.850464,663.104431 1560.940674,667.289551 1576.878052,671.935913 
	C1578.287598,672.346802 1579.704102,672.733459 1580.914917,673.074341 
	C1564.204834,678.057861 1547.314941,682.580627 1530.774780,688.143311 
	C1503.075073,697.459167 1479.765991,712.816101 1466.783325,740.135742 
	C1461.036011,752.230042 1456.417725,764.926147 1452.149414,777.638611 
	C1448.355591,788.938293 1445.753662,800.638184 1442.790405,811.554749 
	C1437.917480,795.177124 1433.357056,778.199890 1427.805176,761.553284 
	C1417.943970,731.985352 1400.869507,708.077026 1371.392822,695.249084 
	C1359.098755,689.898743 1346.320312,685.575928 1333.555176,681.421448 
	C1323.940674,678.292297 1313.996826,676.175293 1303.166504,673.336975 
	C1310.561279,671.415344 1317.195190,669.938171 1323.674438,667.955566 
	C1336.528809,664.022339 1349.459717,660.252136 1362.070801,655.628052 
	C1395.881348,643.230835 1416.959595,618.615173 1427.895020,584.907898 
	C1433.269775,568.340698 1437.917603,551.537659 1442.868164,534.928894 
	C1444.840820,542.523804 1446.903931,550.467041 1449.041748,558.810303 
z"/>
<path fill="#020202" opacity="1.000000" stroke="none" 
	d="
M1534.440186,954.503235 
	C1533.112915,960.414612 1531.924316,965.927856 1530.690308,971.651917 
	C1499.031372,971.651917 1467.480225,971.651917 1435.094482,971.651917 
	C1479.058350,916.367615 1522.628296,861.578857 1566.198120,806.790039 
	C1566.456177,806.924988 1566.714355,807.059937 1566.972412,807.194824 
	C1556.174561,856.164978 1545.376587,905.135071 1534.440186,954.503235 
z"/>
</svg>